<?xml version="1.0" encoding="iso-8859-1"?>
<!-- Generator: Adobe Illustrator 19.0.0, SVG Export Plug-In . SVG Version: 6.00 Build 0)  -->
<svg version="1.1" id="Capa_1" xmlns="http://www.w3.org/2000/svg" xmlns:xlink="http://www.w3.org/1999/xlink" x="0px" y="0px"
	 viewBox="0 0 358.228 358.228" style="enable-background:new 0 0 358.228 358.228;" xml:space="preserve">
<g>
	<g id="Guides_For_Artboard_8_">
	</g>
	<g id="Artwork_8_">
	</g>
	<g id="Layer_2_8_">
		<g>
			<path style="fill:#F7F1E6;" d="M296.441,29.652H63.666c-13.089,0-23.737,10.649-23.737,23.738v173.773
				c0,13.09,10.648,23.737,23.737,23.737h232.775c13.088,0,23.736-10.647,23.736-23.737V53.39
				C320.178,40.301,309.529,29.652,296.441,29.652z M263.647,127.999c-3.875,23.594-32.052,50.114-54.751,71.467
				c0,0-11.327,11.371-14.729,14.288c-2.55,2.195-8.104,6.612-14.11,6.612c-6.016,0-11.558-4.417-14.123-6.612
				c-3.398-2.917-14.728-14.288-14.728-14.288c-22.699-21.353-50.875-47.861-54.751-71.467c-2.715-16.682-0.064-30.438,7.895-40.883
				c8.028-10.545,20.25-16.562,37.363-18.394c1.656-0.166,3.146-0.243,4.649-0.243c12.089,0,24.311,4.504,33.684,12.123
				c9.386-7.619,21.596-12.123,33.708-12.123c1.489,0,2.991,0.077,4.637,0.243c17.113,1.832,29.323,7.849,37.362,18.394
				C263.714,97.561,266.364,111.317,263.647,127.999z"/>
			<path style="fill:#2B3237;" d="M317.459,292.103H38.75c-16.763,0-30.352,13.59-30.352,30.353v5.421
				c0,16.762,13.589,30.351,30.352,30.351h278.709c16.762,0,30.35-13.589,30.35-30.351v-5.421
				C347.809,305.693,334.221,292.103,317.459,292.103z M188.292,345.114H44.998c-9.937,0-17.991-8.054-17.991-17.991v-3.213
				c0-9.936,8.055-17.99,17.991-17.99h143.294V345.114z"/>
			<path style="fill:#F7F1E6;" d="M27.007,323.91v3.213c0,9.938,8.055,17.991,17.991,17.991h143.294V305.92H44.998
				C35.062,305.919,27.007,313.974,27.007,323.91z"/>
			<path style="fill:#E74424;" d="M218.392,68.722c-1.646-0.166-3.147-0.243-4.637-0.243c-12.112,0-24.322,4.504-33.708,12.123
				c-9.373-7.619-21.595-12.123-33.684-12.123c-1.504,0-2.993,0.077-4.649,0.243c-17.113,1.832-29.335,7.849-37.363,18.394
				c-7.959,10.445-10.609,24.201-7.895,40.883c3.876,23.605,32.052,50.114,54.751,71.467c0,0,11.329,11.371,14.728,14.288
				c2.565,2.195,8.107,6.612,14.123,6.612c6.006,0,11.561-4.417,14.11-6.612c3.401-2.917,14.729-14.288,14.729-14.288
				c22.699-21.353,50.876-47.873,54.751-71.467c2.717-16.682,0.066-30.438-7.894-40.883
				C247.715,76.571,235.505,70.554,218.392,68.722z"/>
			<path style="fill:#2B3237;" d="M296.441,0H63.666C34.227,0,10.275,23.95,10.275,53.391v173.773
				c0,29.439,23.951,53.391,53.391,53.391h232.775c29.439,0,53.389-23.951,53.389-53.391V53.39C349.83,23.95,325.881,0,296.441,0z
				 M320.178,227.164c0,13.09-10.648,23.737-23.736,23.737H63.666c-13.089,0-23.737-10.647-23.737-23.737V53.39
				c0-13.089,10.648-23.738,23.737-23.738h232.775c13.088,0,23.736,10.649,23.736,23.738v173.774H320.178z"/>
		</g>
	</g>
</g>
<g>
</g>
<g>
</g>
<g>
</g>
<g>
</g>
<g>
</g>
<g>
</g>
<g>
</g>
<g>
</g>
<g>
</g>
<g>
</g>
<g>
</g>
<g>
</g>
<g>
</g>
<g>
</g>
<g>
</g>
</svg>
